<svg width="480" height="480" fill="none" xmlns="http://www.w3.org/2000/svg"><path d="M141.199 142.4v288.915H64V142.4c0-10.801 8.837-19.637 19.637-19.637h37.925c10.801 0 19.637 8.836 19.637 19.637zM236.195 68.637v362.678h-77.2V68.637c0-10.8 8.837-19.637 19.638-19.637h37.925c10.801 0 19.637 8.837 19.637 19.637zM416 402.473l-72.045 27.738-91.437-237.613c-3.927-10.064 1.105-21.478 11.292-25.405l35.347-13.624c10.064-3.927 21.479 1.105 25.406 11.292L416 402.473z" fill="#D7EFFE"/><path d="M64 391.182l77.199-60.017v100.273H64v-40.256zM236.195 266.239v165.2h-77.2V317.174l51.181-39.766 20.128-17.428 5.891 6.259z" fill="#000" fill-opacity=".05"/><path d="M202.935 291.276l-.86 9.696c2.578.246 4.91 1.473 6.505 3.437 3.437 4.05 2.823 10.309-1.227 13.746-1.35 1.105-6.873 4.787-13.869 7.978-9.328 4.295-14.237 4.909-16.201 4.909.368-2.209 1.964-6.628 6.505-13.623 4.787-7.242 9.942-13.01 11.292-14.237 1.963-1.719 4.418-2.455 6.995-2.21l.86-9.696c-4.91-.491-9.942 1.105-13.992 4.542-5.4 4.541-27.738 32.156-19.637 41.974 1.472 1.719 3.681 2.701 6.381 2.946 12.028 1.105 33.384-11.414 37.803-15.096 8.1-6.873 9.205-19.147 2.454-27.37-3.436-4.295-8.223-6.505-13.009-6.996zM279.029 374.858c-3.436-4.051-8.1-6.505-13.01-6.873l-.859 9.696c2.577.245 4.91 1.472 6.505 3.436 1.596 1.964 2.455 4.541 2.209 7.119-.245 2.577-1.472 4.909-3.436 6.627-1.35 1.105-6.874 4.787-13.869 7.978-9.328 4.296-14.237 4.909-16.201 4.909.368-2.209 1.964-6.627 6.505-13.623 4.786-7.241 9.941-13.01 11.291-14.237 1.964-1.718 4.418-2.455 6.996-2.209l.859-9.696c-4.909-.491-9.941 1.104-13.991 4.541-5.401 4.541-27.738 32.156-19.515 42.097 1.473 1.719 3.682 2.701 6.382 2.946 12.028 1.105 33.384-11.414 37.802-15.096 8.101-7.119 9.205-19.392 2.332-27.615z" fill="#073042"/><path d="M349.846 279.617c-1.472-1.719-1.226-4.419.492-5.892 1.718-1.472 4.418-1.227 5.768.491 1.473 1.719 1.227 4.419-.491 5.892-1.595 1.472-4.296 1.227-5.769-.491zm-29.087-35.348c-1.473-1.718-1.228-4.418.491-5.891 1.718-1.473 4.418-1.227 5.768.491 1.473 1.718 1.227 4.418-.491 5.891-1.718 1.473-4.295 1.228-5.768-.491zM298.544 358.78l57.685-49.216c12.028-12.151 16.814-28.965 13.623-45.044l16.201-2.945c.982-.123 1.596-1.105 1.35-2.087-.123-.982-1.105-1.595-1.964-1.35l-16.323 2.946a50.673 50.673 0 00-10.065-19.392c-4.909-5.891-10.677-10.432-17.059-13.501l5.768-15.832c.369-.859-.123-1.841-.982-2.21-.859-.368-1.841.123-2.209.982l-5.646 15.71c-14.973-6.014-32.156-4.173-45.902 5.769l-57.685 49.216 63.208 76.954z" fill="#3DDC84"/><path d="M250.678 300.727l43.447-37.066c7.978-6.75 8.96-18.901 2.332-27.001-6.627-8.101-18.532-9.083-26.51-2.332l-11.537 9.818-31.911 27.247M306.644 368.598l43.448-37.065c7.978-6.751 8.959-18.901 2.332-27.002-6.628-8.1-18.533-9.082-26.511-2.332l-11.537 9.819-31.91 27.247" fill="#37BF6E"/><path d="M290.689 259.366c7.978-6.75 8.959-18.901 2.332-27.001-6.628-8.101-18.533-9.083-26.511-2.332l-11.537 9.818-33.138 28.352-6.014 5.155c-1.35 1.227-1.595 3.436-.368 4.786l19.76 24.056c1.227 1.473 3.314 1.596 4.787.368l6.014-5.154 44.675-38.048zM353.897 336.074c7.977-6.75 8.959-18.901 2.332-27.001-6.628-8.101-18.533-9.083-26.511-2.332l-11.537 9.818-33.138 28.352-6.014 5.155c-1.35 1.227-1.596 3.436-.368 4.786l19.76 24.056c1.227 1.473 3.314 1.596 4.786.368l6.015-5.154 44.675-38.048zM130.645 402.719H74.432a2.462 2.462 0 01-2.454-2.455v-5.032a2.462 2.462 0 012.454-2.455h56.213a2.462 2.462 0 012.454 2.455v5.032a2.462 2.462 0 01-2.454 2.455zM225.64 402.719h-56.212a2.463 2.463 0 01-2.455-2.455v-5.032a2.463 2.463 0 012.455-2.455h56.212a2.463 2.463 0 012.455 2.455v5.032a2.463 2.463 0 01-2.455 2.455zM102.538 184.621c10.371 0 18.779-8.407 18.779-18.778 0-10.371-8.408-18.778-18.779-18.778-10.37 0-18.778 8.407-18.778 18.778 0 10.371 8.407 18.778 18.778 18.778zM197.534 113.681c10.371 0 18.778-8.408 18.778-18.779 0-10.37-8.407-18.778-18.778-18.778-10.371 0-18.778 8.407-18.778 18.778 0 10.371 8.407 18.779 18.778 18.779zM394.522 375.839l-52.407 20.129c-1.228.491-2.701-.123-3.192-1.473l-1.841-4.664c-.491-1.227.123-2.7 1.473-3.191l52.407-20.128c1.228-.491 2.701.122 3.191 1.472l1.841 4.664c.369 1.228-.245 2.7-1.472 3.191zM297.317 218.249c10.371 0 18.778-8.407 18.778-18.778 0-10.371-8.407-18.778-18.778-18.778-10.371 0-18.778 8.407-18.778 18.778 0 10.371 8.407 18.778 18.778 18.778z" fill="#4285F4"/></svg>